<svg width="16" height="16" viewBox="0 0 16 16" fill="none" xmlns="http://www.w3.org/2000/svg">
<g id="&#240;&#159;&#166;&#134; icon &#34;media image list&#34;">
<path id="Vector" d="M14.9998 3.9647V14.5059C14.9998 14.7788 14.7786 15 14.5057 15H3.96455C3.69165 15 3.47043 14.7788 3.47043 14.5059V3.9647C3.47043 3.69181 3.69165 3.47058 3.96455 3.47058H14.5057C14.7786 3.47058 14.9998 3.69181 14.9998 3.9647Z" stroke="#444444" stroke-width="1.2" stroke-linecap="round" stroke-linejoin="round"/>
<path id="Vector_2" d="M12.5294 1H1.49412C1.22122 1 1 1.22122 1 1.49412V12.5294" stroke="#444444" stroke-width="1.2" stroke-linecap="round" stroke-linejoin="round"/>
<path id="Vector_3" d="M3.47043 11.5411L7.95405 10.0587L14.9998 12.5293" stroke="#444444" stroke-width="1.2" stroke-linecap="round" stroke-linejoin="round"/>
<path id="Vector_4" d="M11.294 8.41163C10.6118 8.41163 10.0588 7.85855 10.0588 7.17633C10.0588 6.49412 10.6118 5.94104 11.294 5.94104C11.9763 5.94104 12.5293 6.49412 12.5293 7.17633C12.5293 7.85855 11.9763 8.41163 11.294 8.41163Z" stroke="#444444" stroke-width="1.2" stroke-linecap="round" stroke-linejoin="round"/>
</g>
</svg>
