<svg width="23" height="22" viewBox="0 0 23 22" fill="none" xmlns="http://www.w3.org/2000/svg">
<g id="icon/google">
<g id="Group 3616">
<path id="Vector" d="M6.36507 9.56363C6.69779 8.55701 7.3399 7.68118 8.19982 7.06109C9.05973 6.44099 10.0935 6.1083 11.1537 6.11047C12.3555 6.11047 13.442 6.53714 14.2954 7.23545L16.7786 4.75296C15.2653 3.43385 13.3261 2.61963 11.1537 2.61963C7.79014 2.61963 4.89449 4.53821 3.50214 7.34852L6.36507 9.56363Z" fill="#0957DE"/>
<path id="Vector_2" d="M14.0267 15.4287C13.2516 15.9286 12.2674 16.1953 11.1538 16.1953C10.0979 16.1975 9.06798 15.8674 8.20998 15.2519C7.35198 14.6364 6.70933 13.7666 6.37301 12.7656L3.50012 14.9466C4.20501 16.3733 5.29587 17.5737 6.6488 18.4115C8.00172 19.2493 9.56249 19.6909 11.1538 19.6862C13.2395 19.6862 15.232 18.9445 16.7247 17.5528L14.0274 15.4287H14.0267Z" fill="#0957DE"/>
<path id="Vector_3" d="M16.7245 17.5532C18.2854 16.0969 19.2988 13.9294 19.2988 11.1532C19.2988 10.6483 19.2212 10.1057 19.1053 9.60156H11.1537V12.899H15.7304C15.505 14.0076 14.8984 14.8659 14.0273 15.4291L16.7245 17.5532Z" fill="#0957DE"/>
<path id="Vector_4" d="M6.37292 12.7659C6.19895 12.246 6.11057 11.7013 6.11123 11.1531C6.11123 10.597 6.20012 10.0629 6.36509 9.56374L3.50216 7.34863C2.91647 8.53099 2.61455 9.83362 2.62038 11.1531C2.62038 12.5184 2.93683 13.8055 3.50003 14.9469L6.37292 12.7659Z" fill="#0957DE"/>
</g>
</g>
</svg>
