<svg width="21" height="21" viewBox="0 0 21 21" fill="none" xmlns="http://www.w3.org/2000/svg">
<g id="&#240;&#159;&#166;&#134; icon &#34;coin&#34;">
<path id="Vector" d="M10.3177 19.6354C15.4636 19.6354 19.6354 15.4636 19.6354 10.3177C19.6354 5.17166 15.4636 1 10.3177 1C5.17166 1 1 5.17166 1 10.3177C1 15.4636 5.17166 19.6354 10.3177 19.6354Z" stroke="#406AFF" stroke-width="1.8777" stroke-linecap="round" stroke-linejoin="round"/>
<path id="Vector_2" d="M13.1131 7.05654C12.4748 6.41828 11.3508 5.97433 10.3178 5.94654M10.3178 5.94654C9.08867 5.91346 7.98834 6.4695 7.98834 7.98831C7.98834 10.7836 13.1131 9.38595 13.1131 12.1813C13.1131 13.7755 11.7491 14.4605 10.3178 14.4091M10.3178 5.94654V4M7.52246 13.113C8.12297 13.9137 9.23952 14.3704 10.3178 14.4091M10.3178 14.4091V16.3742" stroke="#406AFF" stroke-width="1.8777" stroke-linecap="round" stroke-linejoin="round"/>
</g>
</svg>
