<svg width="21" height="21" viewBox="0 0 21 21" fill="none" xmlns="http://www.w3.org/2000/svg">
<g id="&#240;&#159;&#166;&#134; icon &#34;language&#34;">
<path id="Vector" d="M1 10.5C1 15.7467 5.25329 20 10.5 20C15.7467 20 20 15.7467 20 10.5C20 5.25329 15.7467 1 10.5 1C5.25329 1 1 5.25329 1 10.5Z" stroke="#406AFF" stroke-width="1.5" stroke-linecap="round" stroke-linejoin="round"/>
<path id="Vector_2" d="M11.45 1.04688C11.45 1.04688 14.3 4.79996 14.3 10.4999C14.3 16.1999 11.45 19.9531 11.45 19.9531" stroke="#406AFF" stroke-width="1.5" stroke-linecap="round" stroke-linejoin="round"/>
<path id="Vector_3" d="M9.55 19.9531C9.55 19.9531 6.7 16.1999 6.7 10.4999C6.7 4.79996 9.55 1.04688 9.55 1.04688" stroke="#406AFF" stroke-width="1.5" stroke-linecap="round" stroke-linejoin="round"/>
<path id="Vector_4" d="M1.59816 13.8252H19.4019" stroke="#406AFF" stroke-width="1.5" stroke-linecap="round" stroke-linejoin="round"/>
<path id="Vector_5" d="M1.59816 7.1748H19.4019" stroke="#406AFF" stroke-width="1.5" stroke-linecap="round" stroke-linejoin="round"/>
</g>
</svg>
